<svg xmlns="http://www.w3.org/2000/svg" width="80.324" height="81.144" viewBox="0 0 80.324 81.144"><g transform="translate(0 0)"><path d="M140.2,119.712a1.769,1.769,0,0,0-1.769,1.77,36.6,36.6,0,1,1-19.522-32.394,1.769,1.769,0,0,0,1.654-3.128,40.167,40.167,0,1,0,21.406,35.522A1.77,1.77,0,0,0,140.2,119.712Z" transform="translate(-61.645 -80.5)" fill="#414141"/><path d="M117.888,93.708a1.769,1.769,0,0,0,.038,3.538h.039l12.96-.278a1.77,1.77,0,0,0,1.731-1.807l-.278-12.96a1.769,1.769,0,0,0-3.538.076l.241,11.192Z" transform="translate(-63.646 -80.468)" fill="#414141"/><path d="M87.436,136.9a1.7,1.7,0,0,0,1.7-1.7v-5.813h4.078a1.7,1.7,0,1,0,0-3.408H89.14V111.491a1.7,1.7,0,0,0-3.075-1.012l-11.95,16.19a1.7,1.7,0,0,0,1.372,2.716H85.732V135.2A1.7,1.7,0,0,0,87.436,136.9Zm-8.573-10.925,6.869-9.306v9.306Z" transform="translate(-62.09 -81.544)" fill="#414141"/><path d="M130.111,136.821a1.77,1.77,0,0,0,1.77-1.77v-3.4a6.233,6.233,0,0,0-6.227-6.226h-.091a6.2,6.2,0,0,0-2.688.611v-8.532a1.769,1.769,0,0,0-3.538,0v17.544a1.769,1.769,0,1,0,3.538,0v-3.4a2.691,2.691,0,0,1,2.688-2.688h.091a2.691,2.691,0,0,1,2.688,2.688v3.4A1.77,1.77,0,0,0,130.111,136.821Z" transform="translate(-63.763 -81.763)" fill="#414141"/><g transform="translate(35.173 29.343)"><path d="M110.533,123.787l-.074-.669a7.7,7.7,0,0,1,2.416,1.542,7.352,7.352,0,0,1,1.616,2.211,5.975,5.975,0,0,1,.575,2.565,6.806,6.806,0,0,1-1.133,3.809,8.175,8.175,0,0,1-3.048,2.75,9.446,9.446,0,0,1-8.547,0,8.175,8.175,0,0,1-3.048-2.75,6.8,6.8,0,0,1-1.133-3.809,6.033,6.033,0,0,1,.688-2.936,6.712,6.712,0,0,1,1.783-2.118,13.937,13.937,0,0,1,2.174-1.412l-.223.817a7.389,7.389,0,0,1-1.84-1.133,5.6,5.6,0,0,1-1.988-4.405,6.712,6.712,0,0,1,1.06-3.7,7.768,7.768,0,0,1,2.843-2.638,8.411,8.411,0,0,1,7.9,0,7.674,7.674,0,0,1,2.806,2.638,6.8,6.8,0,0,1,1.04,3.7,5.36,5.36,0,0,1-.614,2.658,5.968,5.968,0,0,1-1.5,1.8A7.908,7.908,0,0,1,110.533,123.787Zm-3.939,9.811a4.85,4.85,0,0,0,3.381-1.208,3.867,3.867,0,0,0,1.338-2.991,3.924,3.924,0,0,0-.632-2.193,4.435,4.435,0,0,0-1.71-1.523,5.35,5.35,0,0,0-4.757,0,4.435,4.435,0,0,0-1.71,1.523,3.924,3.924,0,0,0-.631,2.193,3.869,3.869,0,0,0,1.337,2.991A4.854,4.854,0,0,0,106.595,133.6Zm-4.089-15.275a3.841,3.841,0,0,0,2.008,3.456,4.164,4.164,0,0,0,2.082.521,4.069,4.069,0,0,0,2.062-.521,3.953,3.953,0,0,0,1.449-1.411,3.878,3.878,0,0,0,.539-2.045,3.809,3.809,0,0,0-1.152-2.861,4,4,0,0,0-2.9-1.115,4.046,4.046,0,0,0-2.936,1.115A3.807,3.807,0,0,0,102.505,118.323Z" transform="translate(-98.158 -110.929)" fill="#414141"/></g></g></svg>