<svg xmlns="http://www.w3.org/2000/svg" xmlns:xlink="http://www.w3.org/1999/xlink" width="79.371" height="79.372" viewBox="0 0 79.371 79.372"><defs><clipPath id="a"><path d="M0,0H79.371V79.371H0Z" fill="#414141"/></clipPath></defs><g clip-path="url(#a)"><g transform="translate(4.031)"><g transform="translate(51.157 61.389)"><path d="M84.988,92.813a1.55,1.55,0,1,0,1.55,1.55A1.551,1.551,0,0,0,84.988,92.813Z" transform="translate(-83.438 -92.813)" fill="#414141"/></g><path d="M62.618,56.376,55.25,53.92,52.6,48.63a16.979,16.979,0,0,0,4.6-8.982l.33-1.977h2.821A4.656,4.656,0,0,0,65,33.02V23.253a23.253,23.253,0,0,0-46.507,0V33.02A4.658,4.658,0,0,0,21.6,37.4v1.817a4.656,4.656,0,0,0,4.651,4.651h1.361a16.818,16.818,0,0,0,2.6,4.027c.22.252.448.5.683.735L28.248,53.92l-7.368,2.456C12.312,59.233,6.094,68.252,6.094,77.821a1.55,1.55,0,0,0,1.55,1.55h68.21a1.55,1.55,0,0,0,1.55-1.55C77.4,68.252,71.186,59.233,62.618,56.376ZM61.9,33.02a1.552,1.552,0,0,1-1.55,1.55H57.986c.394-3.052.657-6.3.762-9.5,0-.09.006-.178.008-.267H61.9ZM23.146,34.57a1.552,1.552,0,0,1-1.55-1.55V24.8h3.147q.008.243.017.488c0,.006,0,.011,0,.017h0c.109,3.112.368,6.275.753,9.261H23.146Zm3.1,6.2a1.552,1.552,0,0,1-1.55-1.55V37.67h1.271l.33,1.978c.063.376.14.75.23,1.123ZM24.7,21.7H21.655a20.154,20.154,0,0,1,40.188,0H58.8A15.7,15.7,0,0,0,43.136,6.2H40.362A15.7,15.7,0,0,0,24.7,21.7ZM40.361,9.3h2.775A12.605,12.605,0,0,1,55.7,21.922c0,.488,0,.913-.012,1.3,0,0,0,.01,0,.015l-1.939-.277a24.91,24.91,0,0,1-14.005-7,1.551,1.551,0,0,0-1.1-.454,14.025,14.025,0,0,0-10.783,5.1A12.6,12.6,0,0,1,40.361,9.3ZM29.741,40.771c-.776-2.582-1.664-10.178-1.86-15.045l2.086-2.782a10.912,10.912,0,0,1,8.069-4.323,28.04,28.04,0,0,0,15.275,7.408l2.282.326c-.153,3.238-.464,6.487-.911,9.475v0c-.142.961-.254,1.579-.54,3.306A13.168,13.168,0,0,1,44.8,49.728,12.2,12.2,0,0,1,31.1,43.871h3.16a4.658,4.658,0,0,0,4.384,3.1h3.1a4.651,4.651,0,1,0,0-9.3h-3.1a4.653,4.653,0,0,0-4.387,3.1Zm8.777,12.094a15.549,15.549,0,0,0,5.766.13l-2.739,2.9Zm.9,5.281-4.917,5.2A59.065,59.065,0,0,1,31.026,55.3L32.872,51.6Zm10.949-7.067L52.472,55.3A59.049,59.049,0,0,1,49,63.348l-5.263-5.263ZM37.1,42.321a1.55,1.55,0,0,1,1.55-1.55h3.1a1.55,1.55,0,1,1,0,3.1h-3.1A1.552,1.552,0,0,1,37.1,42.321ZM9.256,76.271c.614-7.68,5.725-14.66,12.6-16.954l6.526-2.175A62.144,62.144,0,0,0,32.8,66.714l.009.016h0a62.159,62.159,0,0,0,4.243,6.48l1.907,3.062Zm32.493-1.382-2.1-3.375q-.035-.057-.075-.11a59.108,59.108,0,0,1-3.493-5.218l5.529-5.847,5.825,5.825A59.041,59.041,0,0,1,43.927,71.4C43.851,71.5,43.959,71.345,41.749,74.889Zm2.792,1.382,1.907-3.061a62.136,62.136,0,0,0,4.273-6.531l.023-.041,0,0a62.093,62.093,0,0,0,4.366-9.489l6.525,2.175c6.878,2.294,11.989,9.274,12.6,16.954Z" transform="translate(-6.094)" fill="#414141"/><g transform="translate(56.605 64.348)"><path d="M98.557,102.936a15.5,15.5,0,0,0-4.389-5.328,1.55,1.55,0,0,0-1.891,2.457,12.38,12.38,0,0,1,3.505,4.256,1.55,1.55,0,0,0,2.774-1.386Z" transform="translate(-91.673 -97.286)" fill="#414141"/></g></g></g></svg>