<svg xmlns="http://www.w3.org/2000/svg" xmlns:xlink="http://www.w3.org/1999/xlink" width="46.883" height="46.883" viewBox="0 0 46.883 46.883"><defs><style>.a{fill:#2d2d2d;}.b{clip-path:url(#a);}.c{fill:none;}.d{fill:#787878;}</style><clipPath id="a"><rect class="a" width="46.883" height="46.883" transform="translate(1351 34)"/></clipPath></defs><g class="b" transform="translate(-1351 -34)"><g transform="translate(1351 34)"><path class="c" d="M0,0H46.883V46.883H0Z"/><path class="d" d="M31.658,5a11.7,11.7,0,0,0-8.79,4.083A11.7,11.7,0,0,0,14.077,5,10.64,10.64,0,0,0,3.333,15.744c0,7.384,6.642,13.4,16.7,22.543l2.832,2.559L25.7,38.267c10.06-9.123,16.7-15.139,16.7-22.523A10.64,10.64,0,0,0,31.658,5Zm-8.6,30.376-.2.2-.2-.2C13.374,26.957,7.24,21.389,7.24,15.744a6.676,6.676,0,0,1,6.837-6.837,7.637,7.637,0,0,1,6.974,4.61H24.7a7.588,7.588,0,0,1,6.954-4.61A6.676,6.676,0,0,1,38.5,15.744C38.5,21.389,32.361,26.957,23.063,35.376Z" transform="translate(0.574 0.86)"/></g></g></svg>