<svg xmlns="http://www.w3.org/2000/svg" width="212" height="50.025" viewBox="0 0 212 50.025"><g transform="translate(0 4.155)"><path d="M208.571,451.955a14.165,14.165,0,0,0,4.5,6.112,18.561,18.561,0,0,0,6.64,3.269,21.84,21.84,0,0,0,3.7.654,22.267,22.267,0,0,0,3.8-.013,19.029,19.029,0,0,0,7.354-2.213,16.988,16.988,0,0,0,3.186-2.25,22.866,22.866,0,0,0,2.729-2.981,21.177,21.177,0,0,0,3.531-7.1,16.633,16.633,0,0,0,.406-7.317,14.321,14.321,0,0,0-1.035-3.273,12.175,12.175,0,0,0-1.795-2.8,9.712,9.712,0,0,0-5.417-3.2,12.049,12.049,0,0,0-6.787.564,14.466,14.466,0,0,0-3.271,1.719,13.554,13.554,0,0,0-2.729,2.5,11.546,11.546,0,0,0-2.612,6.643,9.5,9.5,0,0,0,.445,3.389,8.339,8.339,0,0,0,.68,1.52,7.347,7.347,0,0,0,.939,1.307,6.639,6.639,0,0,0,6.091,1.89,9.267,9.267,0,0,0,3.54-1.412,8.984,8.984,0,0,0,2.846-2.879,7.556,7.556,0,0,0,.313-7.756,6.21,6.21,0,0,1,1.765,3.655,8.957,8.957,0,0,1-.738,4.637,11.109,11.109,0,0,1-3.123,4.08,12.554,12.554,0,0,1-4.431,2.406,10.469,10.469,0,0,1-4.775.278,8.863,8.863,0,0,1-4.16-1.967,8.474,8.474,0,0,1-.836-.809,10.838,10.838,0,0,1-.713-.889,11.455,11.455,0,0,1-1.155-2A12.233,12.233,0,0,1,216.412,443a15.219,15.219,0,0,1,.772-5.159,17.529,17.529,0,0,1,2.565-4.9,18.261,18.261,0,0,1,1.846-2.127,22.924,22.924,0,0,1,2.073-1.772,20.707,20.707,0,0,1,4.6-2.613,17.051,17.051,0,0,1,9.744-.974,14.244,14.244,0,0,1,7.945,4.61,16.637,16.637,0,0,1,3.788,8.222,21.209,21.209,0,0,1-.848,9.79,26.351,26.351,0,0,1-2.072,4.819,28.764,28.764,0,0,1-3,4.372,26.3,26.3,0,0,1-3.718,3.656,20.574,20.574,0,0,1-13.291,4.559,21.779,21.779,0,0,1-8.219-1.7,18.134,18.134,0,0,1-6.574-4.6,14.885,14.885,0,0,1-2.252-3.326,13.574,13.574,0,0,1-1.2-3.9" transform="translate(-208.571 -419.616)" fill="#152a77"/><path d="M250.325,425.485a16.082,16.082,0,0,0-2.246-3.064,15,15,0,0,0-2.821-2.4,16.654,16.654,0,0,0-6.817-2.568,18.215,18.215,0,0,0-7.409.491,20.653,20.653,0,0,0-6.941,3.453,21.785,21.785,0,0,0-5.341,5.843,20.893,20.893,0,0,0-1.718,3.487,18.481,18.481,0,0,0-.958,3.643,15.609,15.609,0,0,0,.439,7.007,13.65,13.65,0,0,0,1.349,3.037,12.742,12.742,0,0,0,.93,1.344,9.346,9.346,0,0,0,1.058,1.138c2.929,2.9,8.651,3.317,12.179,1.423a14.528,14.528,0,0,0,3.085-1.916,12.7,12.7,0,0,0,2.473-2.594,11.592,11.592,0,0,0,2.182-6.613,9.182,9.182,0,0,0-.6-3.252,8.17,8.17,0,0,0-.746-1.436,6.374,6.374,0,0,0-.983-1.2,6.873,6.873,0,0,0-6.167-1.526,9.516,9.516,0,0,0-3.466,1.5,8.77,8.77,0,0,0-2.708,2.889,7.534,7.534,0,0,0-.162,7.6,6.313,6.313,0,0,1-1.773-3.556,8.769,8.769,0,0,1,.591-4.527,10.646,10.646,0,0,1,2.933-4.062,12.613,12.613,0,0,1,4.3-2.495,10.831,10.831,0,0,1,4.73-.5,9.054,9.054,0,0,1,4.237,1.657,8.662,8.662,0,0,1,1.641,1.559,11,11,0,0,1,1.232,1.866,11.707,11.707,0,0,1,1.254,4.485,16.246,16.246,0,0,1-2.7,9.908,18.538,18.538,0,0,1-3.582,4.106,20.757,20.757,0,0,1-4.3,2.876,17.2,17.2,0,0,1-9.435,1.8,14.306,14.306,0,0,1-8.157-3.636,13.686,13.686,0,0,1-1.518-1.646,17.449,17.449,0,0,1-1.244-1.807,17.93,17.93,0,0,1-1.806-4.1,20.387,20.387,0,0,1-.4-9.421,24.5,24.5,0,0,1,3.944-9.335,26.481,26.481,0,0,1,3.333-3.958,28.007,28.007,0,0,1,3.935-3.154,22.886,22.886,0,0,1,8.7-3.484,19.028,19.028,0,0,1,8.473.45,16.8,16.8,0,0,1,6.964,3.984,15.748,15.748,0,0,1,2.477,3.079,14.773,14.773,0,0,1,1.56,3.619" transform="translate(-209.572 -414.075)" fill="#152a77"/></g><g transform="translate(54.242)"><g transform="translate(0 4.902)"><path d="M330.482,417.038h-8.72v8.1h-4.487v5.622h4.487v18.162c0,3.88,1.376,6.466,8.909,6.466h1.121c1.37,0,2.739-.055,4.111-.114v-5.958c-.621.057-1.246.114-1.807.114-3.547,0-3.614-.678-3.614-2.419V430.756H335.9v-5.622h-5.421Zm10.882,38.009h8.721V439.474c0-3.318,1.244-7.144,8.038-7.144a17.761,17.761,0,0,1,2.492.114v-7.986a16.7,16.7,0,0,0-1.683-.113c-5.3,0-7.289,2.926-9.1,5.962h-.124v-5.173h-8.349Zm43.774-8.771c-.684,2.137-3.176,3.259-5.607,3.259-7.04,0-7.539-5.059-7.787-7.308h22.74v-1.409c0-13.659-9.032-16.474-15.575-16.474-14.517,0-15.888,11.528-15.888,15.128,0,12.312,7.167,16.362,16.511,16.362,5.67,0,12.272-2.364,14.579-9.56Zm-13.145-9.167c.5-3.935,2.681-6.3,6.792-6.3,2.8,0,6.23,1.463,6.727,6.3Zm73.8-2.753c0-6.579-5.045-10.011-11.524-10.011a10.463,10.463,0,0,0-8.846,4.781c-2.243-3.2-4.426-4.781-9.223-4.781-5.856,0-8.285,3.208-9.4,5.175h-.13v-4.386h-8.35v29.912h8.723V436.828c0-3.261,1.309-5.847,5.42-5.847,5.234,0,5.234,3.543,5.234,6.07v18h8.722V437.11c0-3.543,1.555-6.129,5.917-6.129,2.556,0,4.737,1.464,4.737,5.906v18.16h8.72Zm5.709,20.691h8.726V425.135H451.5Zm23.528-39.476h-8.722v39.477h8.722Z" transform="translate(-317.275 -415.571)" fill="#152a77" fill-rule="evenodd"/></g><g transform="translate(133.691)"><path d="M595,410.649a4.9,4.9,0,1,1-4.9-4.9,4.9,4.9,0,0,1,4.9,4.9" transform="translate(-585.198 -405.747)" fill="#152a77" fill-rule="evenodd"/></g></g></svg>