<svg xmlns="http://www.w3.org/2000/svg" width="260" height="61.351" viewBox="0 0 260 61.351"><g transform="translate(-208.571 -405.747)"><g transform="translate(208.571 410.843)"><path d="M208.571,458.027a17.372,17.372,0,0,0,5.521,7.5,22.763,22.763,0,0,0,8.143,4.01,26.782,26.782,0,0,0,4.538.8,27.308,27.308,0,0,0,4.66-.016,23.338,23.338,0,0,0,9.019-2.713,20.834,20.834,0,0,0,3.907-2.76,28.043,28.043,0,0,0,3.348-3.656,25.973,25.973,0,0,0,4.33-8.7,20.4,20.4,0,0,0,.5-8.973,17.563,17.563,0,0,0-1.269-4.014,14.931,14.931,0,0,0-2.2-3.437,11.911,11.911,0,0,0-6.644-3.921,14.778,14.778,0,0,0-8.323.692,17.741,17.741,0,0,0-4.011,2.108,16.622,16.622,0,0,0-3.347,3.07,14.16,14.16,0,0,0-3.2,8.147,11.653,11.653,0,0,0,.546,4.156,10.229,10.229,0,0,0,.834,1.865,9.01,9.01,0,0,0,1.151,1.6,8.143,8.143,0,0,0,7.47,2.318,11.364,11.364,0,0,0,4.341-1.731,11.018,11.018,0,0,0,3.491-3.531,9.266,9.266,0,0,0,.384-9.512,7.616,7.616,0,0,1,2.165,4.483,10.985,10.985,0,0,1-.906,5.686,13.624,13.624,0,0,1-3.83,5,15.4,15.4,0,0,1-5.434,2.951,12.839,12.839,0,0,1-5.857.341,10.87,10.87,0,0,1-5.1-2.412,10.393,10.393,0,0,1-1.025-.993,13.3,13.3,0,0,1-.875-1.09,14.049,14.049,0,0,1-1.417-2.458,15,15,0,0,1-1.286-5.8,18.664,18.664,0,0,1,.947-6.326,21.5,21.5,0,0,1,3.146-6,22.4,22.4,0,0,1,2.264-2.608,28.112,28.112,0,0,1,2.543-2.173,25.4,25.4,0,0,1,5.642-3.2,20.912,20.912,0,0,1,11.95-1.2,17.469,17.469,0,0,1,9.744,5.654,20.4,20.4,0,0,1,4.645,10.083,26.011,26.011,0,0,1-1.04,12.006,32.314,32.314,0,0,1-2.541,5.91,35.271,35.271,0,0,1-3.677,5.362,32.258,32.258,0,0,1-4.56,4.483,25.232,25.232,0,0,1-16.3,5.591,26.71,26.71,0,0,1-10.08-2.083,22.24,22.24,0,0,1-8.062-5.647,18.257,18.257,0,0,1-2.762-4.079,16.646,16.646,0,0,1-1.475-4.783" transform="translate(-208.571 -418.366)" fill="#fff"/><path d="M259.326,428.068a19.726,19.726,0,0,0-2.754-3.758,18.388,18.388,0,0,0-3.46-2.942,20.424,20.424,0,0,0-8.36-3.15,22.339,22.339,0,0,0-9.086.6,25.328,25.328,0,0,0-8.512,4.234,26.718,26.718,0,0,0-6.551,7.166A25.623,25.623,0,0,0,218.5,434.5a22.664,22.664,0,0,0-1.174,4.467,19.143,19.143,0,0,0,.538,8.594,16.741,16.741,0,0,0,1.655,3.725,15.629,15.629,0,0,0,1.141,1.649,11.464,11.464,0,0,0,1.3,1.4c3.592,3.555,10.61,4.068,14.936,1.745a17.817,17.817,0,0,0,3.783-2.35,15.575,15.575,0,0,0,3.033-3.182,14.216,14.216,0,0,0,2.676-8.11,11.26,11.26,0,0,0-.737-3.988,10.02,10.02,0,0,0-.915-1.761,7.819,7.819,0,0,0-1.2-1.466,8.429,8.429,0,0,0-7.563-1.871,11.67,11.67,0,0,0-4.251,1.843,10.756,10.756,0,0,0-3.321,3.543,9.239,9.239,0,0,0-.2,9.315,7.743,7.743,0,0,1-2.175-4.362,10.755,10.755,0,0,1,.725-5.552,13.057,13.057,0,0,1,3.6-4.981,15.469,15.469,0,0,1,5.272-3.06,13.284,13.284,0,0,1,5.8-.609,11.1,11.1,0,0,1,5.2,2.032,10.621,10.621,0,0,1,2.013,1.912,13.486,13.486,0,0,1,1.511,2.288,14.358,14.358,0,0,1,1.538,5.5,19.924,19.924,0,0,1-3.312,12.151,22.735,22.735,0,0,1-4.393,5.035,25.458,25.458,0,0,1-5.274,3.527,21.091,21.091,0,0,1-11.572,2.2,17.546,17.546,0,0,1-10-4.459,16.781,16.781,0,0,1-1.862-2.019,21.4,21.4,0,0,1-1.526-2.216,21.99,21.99,0,0,1-2.215-5.026,25,25,0,0,1-.486-11.554,30.048,30.048,0,0,1,4.836-11.449,32.477,32.477,0,0,1,4.087-4.854,34.351,34.351,0,0,1,4.826-3.868,28.068,28.068,0,0,1,10.668-4.273,23.336,23.336,0,0,1,10.391.552,20.6,20.6,0,0,1,8.541,4.887,19.316,19.316,0,0,1,3.038,3.776,18.119,18.119,0,0,1,1.914,4.438" transform="translate(-209.347 -414.075)" fill="#fff"/></g><g transform="translate(275.095 405.747)"><g transform="translate(0 6.012)"><path d="M333.472,417.37H322.778v9.93h-5.5v6.894h5.5v22.275c0,4.759,1.688,7.93,10.926,7.93h1.374c1.68,0,3.359-.068,5.041-.14v-7.308c-.761.07-1.529.139-2.216.139-4.35,0-4.432-.831-4.432-2.967v-19.93h6.648V427.3h-6.648Zm13.346,46.615h10.7v-19.1c0-4.069,1.526-8.761,9.858-8.761a21.782,21.782,0,0,1,3.057.14v-9.794a20.481,20.481,0,0,0-2.064-.139c-6.494,0-8.94,3.589-11.156,7.312h-.152V427.3H346.818ZM400.5,453.229c-.839,2.62-3.9,4-6.876,4-8.634,0-9.246-6.2-9.55-8.962h27.889v-1.728c0-16.752-11.077-20.2-19.1-20.2-17.8,0-19.486,14.138-19.486,18.554,0,15.1,8.789,20.067,20.249,20.067,6.953,0,15.051-2.9,17.881-11.725Zm-16.122-11.242c.611-4.826,3.287-7.722,8.329-7.722,3.439,0,7.641,1.794,8.25,7.722ZM474.9,438.61c0-8.069-6.188-12.277-14.133-12.277-6.494,0-9.475,4.069-10.848,5.863-2.751-3.93-5.428-5.863-11.312-5.863-7.182,0-10.161,3.934-11.529,6.346h-.16V427.3h-10.24v36.685h10.7V441.641c0-4,1.606-7.17,6.647-7.17,6.42,0,6.42,4.346,6.42,7.444v22.071h10.7v-22c0-4.345,1.908-7.516,7.257-7.516,3.135,0,5.81,1.795,5.81,7.243v22.272H474.9Zm7,25.375h10.7V427.3H481.9Zm28.855-48.414h-10.7v48.415h10.7Z" transform="translate(-317.275 -415.571)" fill="#fff" fill-rule="evenodd"/></g><g transform="translate(163.961)"><path d="M597.221,411.758a6.012,6.012,0,1,1-6.012-6.011,6.012,6.012,0,0,1,6.012,6.011" transform="translate(-585.198 -405.747)" fill="#fff" fill-rule="evenodd"/></g></g></g></svg>