<svg xmlns="http://www.w3.org/2000/svg" width="143.424" height="148" viewBox="0 0 143.424 148"><defs><style>.a{fill:#262626;}</style></defs><g transform="translate(-0.99 -0.001)"><path class="a" d="M109.522,1.428a2.271,2.271,0,0,0-.46-.694c-.016-.019-.021-.042-.039-.058s-.069-.039-.1-.065a2.322,2.322,0,0,0-.652-.432,2.275,2.275,0,0,0-.782-.157c-.037,0-.065-.021-.1-.021H56.511c-.016,0-.03.009-.049.009a2.205,2.205,0,0,0-1.536.631c-.016.016-.039.021-.053.037L38.685,16.892a2.3,2.3,0,0,0-.666,1.686V49.862L17.988,67.676c-.016.014-.023.037-.039.049s-.046.028-.062.046L1.67,83.927A2.312,2.312,0,1,0,4.936,87.2L17.211,74.972v70.714A2.31,2.31,0,0,0,19.523,148H95.8l.012,0a2.289,2.289,0,0,0,.89-.183,2.265,2.265,0,0,0,.3-.2,2.1,2.1,0,0,0,.449-.3l30.066-30.08a2.341,2.341,0,0,0,.68-1.637V72.669l15.547-15.547v0h0a2.185,2.185,0,0,0,.247-.375,2.321,2.321,0,0,0,.257-.391,2.22,2.22,0,0,0,.09-.46,2.323,2.323,0,0,0,.079-.409,2.124,2.124,0,0,0-.081-.412,1.216,1.216,0,0,0-.349-.851,2.385,2.385,0,0,0-.245-.37h0v0l-16.22-16.16c-.016-.016-.039-.021-.053-.037a2.3,2.3,0,0,0-.7-.463,1.781,1.781,0,0,0-.245-.053,2.365,2.365,0,0,0-.638-.125H109.7V2.314a2.341,2.341,0,0,0-.18-.886Zm29.31,54.061L112.024,82.3,99.08,69.4l26.8-26.814ZM57.47,4.626h44.339L90.239,16.214H45.9Zm-14.826,46.4V20.84H88.887v46.24H42.644Zm62.43,5.837L94.853,67.091H93.512v-47.6L105.075,7.905ZM38.019,67.091H25.6L38.019,56.049Zm55.474,76.283H21.836V71.716H93.493Zm30.073-28.724L98.118,140.108V74.972L110.394,87.2a2.243,2.243,0,0,0,.617.409c.051.025.092.074.146.1a2.173,2.173,0,0,0,2.181-.294,2.126,2.126,0,0,0,.324-.215l9.9-9.9ZM120.3,41.637l-10.6,10.6v-10.6Z" transform="translate(0 0)"/><path class="a" d="M40.622,88.193A26.595,26.595,0,1,0,14.027,61.6,26.625,26.625,0,0,0,40.622,88.193Zm0-48.564A21.969,21.969,0,1,1,18.652,61.6,22,22,0,0,1,40.622,39.629Z" transform="translate(17.112 45.944)"/><path class="a" d="M19.182,65.183a1.976,1.976,0,0,0,.2.386,2.279,2.279,0,0,0,.243.365,2.306,2.306,0,0,0,.365.305,2.233,2.233,0,0,0,.238.2l12.7,6.931a1.167,1.167,0,0,0,.141.053,1.508,1.508,0,0,0,.169.067.308.308,0,0,1,.042.016c.058.021.113.049.171.065a2.3,2.3,0,0,0,.585.079h0a2.3,2.3,0,0,0,.585-.079c.058-.016.113-.046.171-.065a.308.308,0,0,1,.042-.016c.058-.023.113-.042.169-.067s.095-.03.141-.053l12.7-6.931a2.467,2.467,0,0,0,.238-.2,2.34,2.34,0,0,0,.365-.308,2.312,2.312,0,0,0,.243-.363,2.207,2.207,0,0,0,.2-.389,2.338,2.338,0,0,0,.095-.472,2.23,2.23,0,0,0,.06-.3V48.237c0-.039-.021-.072-.023-.109a2.286,2.286,0,0,0-.051-.331,2.2,2.2,0,0,0-.079-.324,2.357,2.357,0,0,0-.095-.241c-.019-.035-.016-.074-.035-.109a1.721,1.721,0,0,0-.134-.157,2.206,2.206,0,0,0-.176-.241,1.735,1.735,0,0,0-.486-.409c-.049-.03-.076-.079-.127-.106l-12.7-6.942a1.546,1.546,0,0,0-.229-.072,2.214,2.214,0,0,0-.893-.183,2.206,2.206,0,0,0-.407.039,2.067,2.067,0,0,0-.467.146c-.072.03-.15.03-.222.067L20.23,46.2c-.053.03-.083.079-.134.113a2.184,2.184,0,0,0-.291.213,2.213,2.213,0,0,0-.178.183,2.155,2.155,0,0,0-.187.252,1.72,1.72,0,0,0-.132.155c-.021.039-.018.079-.037.118a1.779,1.779,0,0,0-.09.227,2.3,2.3,0,0,0-.081.331,1.788,1.788,0,0,0-.051.331c0,.039-.023.072-.023.111V64.411a2.523,2.523,0,0,0,.06.3A2.331,2.331,0,0,0,19.182,65.183ZM34.038,43.935l7.867,4.3-7.87,4.3-7.867-4.3Zm-10.388,8.2,8.071,4.412v10.9L23.65,63.039Zm12.7,4.412,8.071-4.408v10.9l-8.071,4.405Z" transform="translate(23.673 51.207)"/></g></svg>