<svg id="Group_604" data-name="Group 604" xmlns="http://www.w3.org/2000/svg" width="153.841" height="131.874" viewBox="0 0 153.841 131.874">
  <path id="Path_278" data-name="Path 278" d="M583.463,101.9a11.928,11.928,0,0,0-16.865,0l-64.875,64.877a2.29,2.29,0,0,0-.6,1.054l-4.636,18.263c-.02.082-.033.163-.044.245h-8.407V197.32h10.987v-8.405a2.146,2.146,0,0,0,.245-.046l18.263-4.634a2.278,2.278,0,0,0,1.054-.6L535.4,166.819a2.288,2.288,0,0,0-3.234-3.236l-15.2,15.2-10.395-10.395,58.643-58.643,10.395,10.395-37.1,37.1a2.287,2.287,0,0,0,3.234,3.234l41.714-41.714A11.938,11.938,0,0,0,583.463,101.9Zm-78.9,70.954,7.938,7.94-10.638,2.7Zm75.662-57.325-1.382,1.382-10.4-10.395,1.382-1.382a7.35,7.35,0,1,1,10.4,10.395Z" transform="translate(-433.108 -98.404)" fill="#414141"/>
  <path id="Path_279" data-name="Path 279" d="M481.3,159.048h10.985v10.987H481.3Z" transform="translate(-437.359 -60.132)" fill="#414141"/>
  <path id="Path_280" data-name="Path 280" d="M474.566,165.784h10.987v10.985H474.566Z" transform="translate(-441.61 -55.881)" fill="#414141"/>
  <path id="Path_281" data-name="Path 281" d="M467.832,172.519h10.984V183.5H467.832Z" transform="translate(-445.859 -51.63)" fill="#414141"/>
  <path id="Path_282" data-name="Path 282" d="M461.1,165.784h10.985v10.985H461.1Z" transform="translate(-450.11 -55.881)" fill="#414141"/>
  <path id="Path_283" data-name="Path 283" d="M454.361,159.048h10.985v10.987H454.361Z" transform="translate(-454.361 -60.132)" fill="#414141"/>
</svg>
