<svg xmlns="http://www.w3.org/2000/svg" width="65.579" height="78.374" viewBox="0 0 65.579 78.374"><g transform="translate(-2.427 0.144)" fill="none" stroke-linecap="round" stroke-linejoin="round"><path d="M35.216,3.856,6.427,16.651V35.844c0,17.769,12.267,34.339,28.789,38.386,16.522-4.046,28.789-20.616,28.789-38.386V16.651Zm0,35.155H57.608C55.913,52.19,47.132,63.93,35.216,67.592V39.043H12.824V20.81l22.392-9.948v28.15Z" stroke="none"/><path d="M 35.21613311767578 3.856063842773438 L 6.4267578125 16.6513671875 L 6.4267578125 35.84426498413086 C 6.4267578125 53.61367797851563 18.69425964355469 70.18361663818359 35.21613311767578 74.23009490966797 C 51.73800659179688 70.18361663818359 64.0054931640625 53.61367797851563 64.0054931640625 35.84426498413086 L 64.0054931640625 16.6513671875 L 35.21613311767578 3.856063842773438 M 35.21613311767578 39.01110458374023 L 57.60788345336914 39.01102828979492 C 55.91254425048828 52.19019317626953 47.13178253173828 63.92980575561523 35.21613311767578 67.59249114990234 L 35.21613311767578 39.04304122924805 L 12.82438278198242 39.04304122924805 L 12.82438278198242 20.80978012084961 L 35.21613311767578 10.86148071289063 L 35.21613311767578 39.01102828979492 M 35.21613311767578 39.01102828979492 L 35.21613311767578 39.01110458374023 L 35.21613311767578 39.01102828979492 M 35.21614074707031 -0.1439285278320313 C 35.76985168457031 -0.1439285278320313 36.32356262207031 -0.02901458740234375 36.84069442749023 0.2008132934570313 L 65.63005828857422 12.99611663818359 C 67.07455444335938 13.63813018798828 68.0054931640625 15.07061767578125 68.0054931640625 16.6513671875 L 68.0054931640625 35.84426498413086 C 68.0054931640625 45.31960296630859 64.81118011474609 54.81357955932617 59.01098251342773 62.57730484008789 C 56.15055847167969 66.40606689453125 52.7684211730957 69.6822509765625 48.95853424072266 72.31482696533203 C 44.99011993408203 75.05694580078125 40.68666076660156 77.00849151611328 36.16767120361328 78.11526489257813 C 35.85510635375977 78.19181823730469 35.53562164306641 78.23009490966797 35.21613311767578 78.23009490966797 C 34.89664459228516 78.23009490966797 34.5771598815918 78.19181823730469 34.26459503173828 78.11526489257813 C 29.74560928344727 77.00849151611328 25.44214630126953 75.05694580078125 21.47373199462891 72.31482696533203 C 17.66383361816406 69.6822509765625 14.28170776367188 66.40608215332031 11.42127227783203 62.57730484008789 C 5.621070861816406 54.81357955932617 2.4267578125 45.31960296630859 2.4267578125 35.84426498413086 L 2.4267578125 16.6513671875 C 2.4267578125 15.07061767578125 3.357696533203125 13.63813018798828 4.802207946777344 12.99611663818359 L 33.59158325195313 0.2008132934570313 C 34.10871505737305 -0.02901458740234375 34.66242599487305 -0.1439285278320313 35.21614074707031 -0.1439285278320313 Z M 31.21613311767578 35.04304122924805 L 31.21613311767578 17.015625 L 16.82438278198242 23.40964889526367 L 16.82438278198242 35.04304122924805 L 31.21613311767578 35.04304122924805 Z M 52.74315643310547 43.01102828979492 L 39.21613311767578 43.01102828979492 L 39.21613311767578 61.47112274169922 C 45.63060760498047 57.68147277832031 50.58999633789063 50.94740295410156 52.74315643310547 43.01102828979492 Z" stroke="none" fill="#444549"/></g></svg>